<?xml version="1.0" encoding="UTF-8"?>
<svg width="1000px" height="1000px" viewBox="0 0 1500 1500" version="1.1" xmlns="http://www.w3.org/2000/svg" xmlns:xlink="http://www.w3.org/1999/xlink">
    <!-- Generator: Sketch 52.6 (67491) - http://www.bohemiancoding.com/sketch -->
    <title>logotype</title>
    <desc>Created with Sketch.</desc>
    <g id="Page-1" stroke="none" stroke-width="1" fill="none" fill-rule="evenodd">
        <g id="Group" transform="translate(-4781.000000, -4784.000000)">
            <rect id="white-background" fill="#FFFFFF" x="0" y="0" width="1000" height="1000"></rect>
            <g id="black-logotypes" transform="translate(4781.000000, 4784.000000)">
                <g id="logotype" transform="translate(219.000000, 219.000000)">
                    <g id="logo">
                        <circle id="left-eye" fill="#000000" cx="240" cy="270" r="27"></circle>
                        <circle id="right-eye" fill="#000000" cx="340" cy="270" r="27"></circle>
                        <path d="M1000,0 L600,400" id="wing" stroke="#000000" stroke-width="36" stroke-linecap="round" stroke-linejoin="round"></path>
                        <path d="M1200,100 L1000,300" id="tail-middle" stroke="#000000" stroke-width="36" stroke-linecap="round" stroke-linejoin="round"></path>
                        <path d="M1200,0 L1000,200" id="tail-top" stroke="#000000" stroke-width="36" stroke-linecap="round" stroke-linejoin="round"></path>
                        <path d="M500,0 L300,200" id="head-middle" stroke="#000000" stroke-width="36" stroke-linecap="round" stroke-linejoin="round"></path>
                        <path d="M600,0 L400,200" id="head-right" stroke="#000000" stroke-width="36" stroke-linecap="round" stroke-linejoin="round"></path>
                        <path d="M400,-2.84217094e-13 L0,400 L200,400 L200,600 C200,820 380,1000 600,1000 C820,1000 1000,820 1000,600 L1000,400 L1200,200" id="body" stroke="#000000" stroke-width="36" stroke-linecap="round" stroke-linejoin="round"></path>
                    </g>
                    
                </g>
            </g>
        </g>
    </g>
</svg>
